<svg xmlns="http://www.w3.org/2000/svg" width="600" height="300" viewBox="0 0 600 300"><defs><linearGradient id="bg" x1="0" y1="0" x2="1" y2="1"><stop stop-color="#5f8df7"/><stop offset="1" stop-color="#3155c8"/></linearGradient><filter id="s"><feDropShadow dx="0" dy="5" stdDeviation="4" flood-opacity=".28"/></filter></defs><rect width="600" height="300" rx="28" fill="url(#bg)"/><g filter="url(#s)" stroke="#233c78" stroke-width="7" stroke-linejoin="round"><rect x="38" y="48" width="120" height="88" rx="15" fill="#fff"/><circle cx="130" cy="72" r="10" fill="#ffc83d" stroke="none"/><path d="M54 119l31-31 20 20 19-18 21 29z" fill="#43b88a" stroke="none"/><rect x="38" y="166" width="120" height="86" rx="15" fill="#fff"/><path d="M66 201h20l22-18v52l-22-18H66z" fill="#7059d9"/><path d="M120 195q18 15 0 30" fill="none"/></g><g fill="none" stroke="#dbe7ff" stroke-width="10" stroke-linecap="round" stroke-linejoin="round"><path d="M177 92h48"/><path d="M207 76l19 16-19 16"/><path d="M177 209h48"/><path d="M207 193l19 16-19 16"/></g><g filter="url(#s)" stroke="#233c78" stroke-width="7"><ellipse cx="296" cy="76" rx="60" ry="25" fill="#b8c5ff"/><path d="M236 76v133c0 15 27 26 60 26s60-11 60-26V76" fill="#7185e8"/><ellipse cx="296" cy="209" rx="60" ry="25" fill="#6175d8"/><ellipse cx="296" cy="76" rx="60" ry="25" fill="#aabaff"/></g><g fill="none" stroke="#dbe7ff" stroke-width="10" stroke-linecap="round" stroke-linejoin="round"><path d="M376 148h48"/><path d="M406 132l19 16-19 16"/></g><g filter="url(#s)" fill="#f4a62a" stroke="#233c78" stroke-width="7" stroke-linejoin="round" stroke-linecap="round"><path d="M454 123c14-18 38-27 65-22 25 5 42 23 43 48 1 24-14 44-38 51l5 35h-19l-9-31h-27l-8 31h-19l8-45c-18-15-22-46-1-67z"/><path d="M468 116c-13-10-17-28-8-43 10-16 31-20 48-10 13 8 18 22 14 36l24 6c12 3 15 15 7 22-8 7-21 5-32 1l-27-7c-10-2-19-4-26-5z"/><path d="M468 72c-16-7-28 4-25 20 3 16 17 26 31 20-7-14-9-27-6-40z"/><path d="M552 128c18-9 30-24 27-40-2-13-13-18-22-11-8 6-7 17 1 21"/></g><circle cx="496" cy="84" r="4.5" fill="#233c78"/><ellipse cx="551" cy="116" rx="6" ry="5" fill="#233c78"/></svg>